<svg width="960" height="540" viewBox="0 0 960 540" fill="none" xmlns="http://www.w3.org/2000/svg">
  <defs>
    <linearGradient id="rack-bg" x1="0" y1="0" x2="960" y2="540" gradientUnits="userSpaceOnUse">
      <stop offset="0" stop-color="#1E1B18" />
      <stop offset="1" stop-color="#2F251D" />
    </linearGradient>
    <linearGradient id="glow" x1="480" y1="40" x2="480" y2="500" gradientUnits="userSpaceOnUse">
      <stop offset="0" stop-color="#FBBF24" stop-opacity="0.35" />
      <stop offset="1" stop-color="#F97316" stop-opacity="0" />
    </linearGradient>
    <linearGradient id="panel" x1="0" y1="0" x2="0" y2="1" gradientUnits="objectBoundingBox">
      <stop offset="0" stop-color="#26211C" />
      <stop offset="1" stop-color="#1B1713" />
    </linearGradient>
    <linearGradient id="screen" x1="0" y1="0" x2="1" y2="1" gradientUnits="objectBoundingBox">
      <stop offset="0" stop-color="#0EA5E9" stop-opacity="0.9" />
      <stop offset="1" stop-color="#22D3EE" stop-opacity="0.4" />
    </linearGradient>
  </defs>
  <rect x="0" y="0" width="960" height="540" rx="32" fill="url(#rack-bg)" />
  <rect x="60" y="40" width="840" height="460" rx="28" fill="url(#glow)" />
  <rect x="100" y="60" width="760" height="420" rx="20" fill="#13100E" stroke="#3F2E1F" stroke-width="2" />
  <g opacity="0.9">
    <rect x="130" y="90" width="700" height="70" rx="10" fill="url(#panel)" stroke="#4A3829" stroke-width="2" />
    <rect x="150" y="110" width="220" height="32" rx="6" fill="#111" />
    <rect x="386" y="110" width="120" height="32" rx="6" fill="url(#screen)" />
    <circle cx="544" cy="126" r="6" fill="#22C55E" />
    <circle cx="574" cy="126" r="6" fill="#F97316" />
    <circle cx="604" cy="126" r="6" fill="#FACC15" />
    <rect x="640" y="112" width="150" height="28" rx="5" fill="#111" />
  </g>
  <g opacity="0.95">
    <rect x="130" y="180" width="700" height="70" rx="10" fill="url(#panel)" stroke="#4A3829" stroke-width="2" />
    <rect x="150" y="200" width="250" height="30" rx="6" fill="#111" />
    <rect x="418" y="200" width="120" height="30" rx="6" fill="#1E293B" />
    <rect x="558" y="200" width="60" height="30" rx="6" fill="#111" />
    <rect x="628" y="200" width="60" height="30" rx="6" fill="#111" />
    <rect x="698" y="200" width="112" height="30" rx="6" fill="#22C55E" fill-opacity="0.3" stroke="#22C55E" stroke-width="2" />
  </g>
  <g opacity="0.92">
    <rect x="130" y="270" width="700" height="70" rx="10" fill="url(#panel)" stroke="#4A3829" stroke-width="2" />
    <rect x="150" y="288" width="180" height="34" rx="6" fill="#111" />
    <rect x="350" y="288" width="140" height="34" rx="6" fill="#0F172A" />
    <rect x="510" y="288" width="100" height="34" rx="6" fill="#111" />
    <rect x="630" y="288" width="180" height="34" rx="6" fill="#111" />
    <circle cx="210" cy="330" r="6" fill="#22C55E" />
    <circle cx="240" cy="330" r="6" fill="#F97316" />
    <circle cx="270" cy="330" r="6" fill="#FACC15" />
  </g>
  <g opacity="0.88">
    <rect x="130" y="360" width="700" height="70" rx="10" fill="url(#panel)" stroke="#4A3829" stroke-width="2" />
    <rect x="150" y="378" width="320" height="34" rx="6" fill="#111" />
    <rect x="490" y="378" width="200" height="34" rx="6" fill="#0B1120" />
    <rect x="710" y="378" width="100" height="34" rx="6" fill="#111" />
    <circle cx="210" cy="418" r="6" fill="#22C55E" />
    <circle cx="240" cy="418" r="6" fill="#22C55E" />
    <circle cx="270" cy="418" r="6" fill="#F97316" />
  </g>
  <rect x="100" y="60" width="760" height="420" rx="20" stroke="#FCD34D" stroke-opacity="0.15" stroke-width="4" />
</svg>
